<svg width="100" height="100" viewBox="0 0 100 100" fill="none" xmlns="http://www.w3.org/2000/svg">
<g clip-path="url(#clip0_194_30)">
<circle cx="50" cy="50" r="50" fill="#377DFF"/>
<path fill-rule="evenodd" clip-rule="evenodd" d="M51.5 60.25H64C66.7614 60.25 69 58.0114 69 55.25V37.75C69 34.9886 66.7614 32.75 64 32.75H36C33.2386 32.75 31 34.9886 31 37.75V55.25C31 58.0114 33.2386 60.25 36 60.25H48.5V64.25H43C42.1716 64.25 41.5 64.9216 41.5 65.75C41.5 66.5784 42.1716 67.25 43 67.25H57C57.8284 67.25 58.5 66.5784 58.5 65.75C58.5 64.9216 57.8284 64.25 57 64.25H51.5V60.25ZM36 35.75C34.8954 35.75 34 36.6454 34 37.75V55.25C34 56.3546 34.8954 57.25 36 57.25H64C65.1046 57.25 66 56.3546 66 55.25V37.75C66 36.6454 65.1046 35.75 64 35.75H36Z" fill="white"/>
</g>
<defs>
<clipPath id="clip0_194_30">
<rect width="100" height="100" fill="white"/>
</clipPath>
</defs>
</svg>
