<svg width="99" height="71" viewBox="0 0 99 71" fill="none" xmlns="http://www.w3.org/2000/svg">
<ellipse cx="2.39824" cy="2.5" rx="2.39812" ry="2.5" fill="#FF5C00"/>
<ellipse cx="2.39824" cy="46.2844" rx="2.39812" ry="2.5" fill="#FF5C00"/>
<ellipse cx="40.0534" cy="2.5" rx="2.39812" ry="2.5" fill="#FF5C00"/>
<ellipse cx="40.0534" cy="46.2844" rx="2.39812" ry="2.5" fill="#FF5C00"/>
<ellipse cx="77.7085" cy="2.5" rx="2.39812" ry="2.5" fill="#FF5C00"/>
<ellipse cx="77.7085" cy="46.2844" rx="2.39812" ry="2.5" fill="#FF5C00"/>
<ellipse cx="2.39824" cy="24.3921" rx="2.39812" ry="2.5" fill="#FF5C00"/>
<ellipse cx="2.39824" cy="68.1763" rx="2.39812" ry="2.5" fill="#FF5C00"/>
<ellipse cx="40.0534" cy="24.3921" rx="2.39812" ry="2.5" fill="#FF5C00"/>
<ellipse cx="40.0534" cy="68.1763" rx="2.39812" ry="2.5" fill="#FF5C00"/>
<ellipse cx="77.7085" cy="24.3921" rx="2.39812" ry="2.5" fill="#FF5C00"/>
<ellipse cx="77.7085" cy="68.1763" rx="2.39812" ry="2.5" fill="#FF5C00"/>
<ellipse cx="21.2259" cy="2.5" rx="2.39812" ry="2.5" fill="#FF5C00"/>
<ellipse cx="21.2259" cy="46.2844" rx="2.39812" ry="2.5" fill="#FF5C00"/>
<ellipse cx="58.881" cy="2.5" rx="2.39812" ry="2.5" fill="#FF5C00"/>
<ellipse cx="58.881" cy="46.2844" rx="2.39812" ry="2.5" fill="#FF5C00"/>
<ellipse cx="96.5362" cy="2.5" rx="2.39812" ry="2.5" fill="#FF5C00"/>
<ellipse cx="96.5362" cy="46.2844" rx="2.39812" ry="2.5" fill="#FF5C00"/>
<ellipse cx="21.2259" cy="24.3921" rx="2.39812" ry="2.5" fill="#FF5C00"/>
<ellipse cx="21.2259" cy="68.1763" rx="2.39812" ry="2.5" fill="#FF5C00"/>
<ellipse cx="58.881" cy="24.3921" rx="2.39812" ry="2.5" fill="#FF5C00"/>
<ellipse cx="58.881" cy="68.1763" rx="2.39812" ry="2.5" fill="#FF5C00"/>
<ellipse cx="96.5362" cy="24.3921" rx="2.39812" ry="2.5" fill="#FF5C00"/>
<ellipse cx="96.5362" cy="68.1763" rx="2.39812" ry="2.5" fill="#FF5C00"/>
</svg>
