<svg width="100" height="100" viewBox="0 0 100 100" fill="none" xmlns="http://www.w3.org/2000/svg">
<g clip-path="url(#clip0_194_41)">
<circle cx="50" cy="50" r="50" fill="#FF2D2D"/>
<path fill-rule="evenodd" clip-rule="evenodd" d="M44.275 36.179L42.08 34.782C39.99 33.452 37.256 33.752 35.504 35.504C33.752 37.256 33.452 39.99 34.782 42.08L36.179 44.275L33.639 44.84C31.221 45.377 29.5 47.522 29.5 50C29.5 52.478 31.221 54.623 33.639 55.16L36.179 55.725L34.782 57.92C33.452 60.01 33.752 62.744 35.504 64.496C37.256 66.248 39.99 66.548 42.08 65.218L44.275 63.821L44.84 66.361C45.377 68.779 47.522 70.5 50 70.5C52.478 70.5 54.623 68.779 55.16 66.361L55.725 63.821L57.92 65.218C60.01 66.548 62.744 66.248 64.496 64.496C66.248 62.744 66.548 60.01 65.218 57.92L63.821 55.725L66.361 55.16C68.779 54.623 70.5 52.478 70.5 50C70.5 47.522 68.779 45.377 66.361 44.84L63.821 44.275L65.218 42.08C66.548 39.99 66.248 37.256 64.496 35.504C62.744 33.752 60.01 33.452 57.92 34.782L55.725 36.179L55.16 33.639C54.623 31.221 52.478 29.5 50 29.5C47.522 29.5 45.377 31.221 44.84 33.639L44.275 36.179ZM47.768 34.29C48.001 33.244 48.929 32.5 50 32.5C51.071 32.5 51.999 33.244 52.232 34.29L52.821 36.942C53.028 37.871 53.674 38.641 54.554 39.006C55.434 39.37 56.436 39.283 57.239 38.772L59.53 37.313C60.434 36.738 61.617 36.868 62.374 37.626C63.132 38.383 63.262 39.566 62.687 40.47L61.228 42.761C60.717 43.564 60.63 44.566 60.994 45.446C61.359 46.326 62.129 46.972 63.058 47.179L65.71 47.768C66.756 48.001 67.5 48.929 67.5 50C67.5 51.071 66.756 51.999 65.71 52.232L63.058 52.821C62.129 53.028 61.359 53.674 60.994 54.554C60.63 55.434 60.717 56.436 61.228 57.239L62.687 59.53C63.262 60.434 63.132 61.617 62.374 62.374C61.617 63.132 60.434 63.262 59.53 62.687L57.239 61.228C56.436 60.717 55.434 60.63 54.554 60.994C53.674 61.359 53.028 62.129 52.821 63.058L52.232 65.71C51.999 66.756 51.071 67.5 50 67.5C48.929 67.5 48.001 66.756 47.768 65.71L47.179 63.058C46.972 62.129 46.326 61.359 45.446 60.994C44.566 60.63 43.564 60.717 42.761 61.228L40.47 62.687C39.566 63.262 38.383 63.132 37.626 62.374C36.868 61.617 36.738 60.434 37.313 59.53L38.772 57.239C39.283 56.436 39.37 55.434 39.006 54.554C38.641 53.674 37.871 53.028 36.942 52.821L34.29 52.232C33.244 51.999 32.5 51.071 32.5 50C32.5 48.929 33.244 48.001 34.29 47.768L36.942 47.179C37.871 46.972 38.641 46.326 39.006 45.446C39.37 44.566 39.283 43.564 38.772 42.761L37.313 40.47C36.738 39.566 36.868 38.383 37.626 37.626C38.383 36.868 39.566 36.738 40.47 37.313L42.761 38.772C43.564 39.283 44.566 39.37 45.446 39.006C46.326 38.641 46.972 37.871 47.179 36.942L47.768 34.29ZM50 43.5C46.413 43.5 43.5 46.413 43.5 50C43.5 53.587 46.413 56.5 50 56.5C53.587 56.5 56.5 53.587 56.5 50C56.5 46.413 53.587 43.5 50 43.5ZM50 46.5C51.932 46.5 53.5 48.068 53.5 50C53.5 51.932 51.932 53.5 50 53.5C48.068 53.5 46.5 51.932 46.5 50C46.5 48.068 48.068 46.5 50 46.5Z" fill="white"/>
</g>
<defs>
<clipPath id="clip0_194_41">
<rect width="100" height="100" fill="white"/>
</clipPath>
</defs>
</svg>
