<svg width="100" height="100" viewBox="0 0 100 100" fill="none" xmlns="http://www.w3.org/2000/svg">
<g clip-path="url(#clip0_1_92)">
<circle cx="50" cy="50" r="50" fill="#7CE761"/>
<path fill-rule="evenodd" clip-rule="evenodd" d="M32.6663 31.0092C32.7368 31.017 32.8068 31.0298 32.8758 31.0476L58.227 37.1668C58.7948 37.3039 59.2314 37.7581 59.3459 38.3308L61.4286 48.7445C62.0105 48.363 62.7993 48.4279 63.3107 48.9393L68.5607 54.1893C69.1464 54.7751 69.1464 55.7249 68.5607 56.3107L56.3107 68.5607C55.7249 69.1464 54.7751 69.1464 54.1893 68.5607L48.9393 63.3107C48.4279 62.7992 48.363 62.0104 48.7445 61.4286L38.3309 59.3458C37.7581 59.2313 37.304 58.7947 37.1669 58.2269L31.0487 32.8801C30.9187 32.3818 31.0489 31.8297 31.4393 31.4393C31.6937 31.185 32.0166 31.0411 32.3485 31.0076C32.4535 30.997 32.56 30.9973 32.6663 31.0092ZM43.8159 45.9372L35.2091 37.3304L39.8584 56.5919L51.257 58.8717L58.8717 51.257L56.592 39.8584L37.3303 35.209L45.9372 43.8159C46.6288 43.4544 47.4155 43.25 48.25 43.25C51.0114 43.25 53.25 45.4886 53.25 48.25C53.25 51.0114 51.0114 53.25 48.25 53.25C45.4886 53.25 43.25 51.0114 43.25 48.25C43.25 47.4155 43.4544 46.6288 43.8159 45.9372ZM46.8145 46.8574C46.4651 47.2175 46.25 47.7086 46.25 48.25C46.25 49.3546 47.1454 50.25 48.25 50.25C49.3546 50.25 50.25 49.3546 50.25 48.25C50.25 47.1454 49.3546 46.25 48.25 46.25C47.7086 46.25 47.2175 46.4651 46.8574 46.8145C46.8504 46.8217 46.8433 46.829 46.8362 46.8362C46.829 46.8433 46.8217 46.8504 46.8145 46.8574ZM52.1213 62.25L55.25 65.3787L65.3787 55.25L62.25 52.1213L52.1213 62.25Z" fill="white"/>
</g>
<defs>
<clipPath id="clip0_1_92">
<rect width="100" height="100" fill="white"/>
</clipPath>
</defs>
</svg>
