<svg display="none" xmlns="http://www.w3.org/2000/svg" xmlns:xlink="http://www.w3.org/1999/xlink">
  <symbol id="logo-ic" viewBox="0 0 53 50">
    <path d="M33.1226 1.87377L45.3403 23.127C46.0066 24.2863 46.0066 25.7144 45.3403 26.8736L33.1226 48.1269C32.4563 49.2861 31.2249 50.0001 29.8921 50.0001H37.0519C38.3847 50.0001 39.6162 49.2861 40.2825 48.1269L52.5002 26.8736C53.1665 25.7144 53.1665 24.2863 52.5002 23.127L40.2825 1.87377C39.6162 0.714544 38.3845 0.000488281 37.0519 0.000488281H29.8921C31.2249 0.000488281 32.4563 0.714544 33.1226 1.87377Z" fill="#39435A"/>
    <path d="M33.1226 1.87377L33.667 2.82078C34.5923 2.83436 35.5534 2.9107 36.5343 3.05552C38.4862 3.34389 40.2855 3.86951 41.8228 4.55371L40.2821 1.87377C39.6162 0.714544 38.3847 0.000488281 37.0519 0.000488281H29.8921C31.2249 0.000488281 32.4563 0.714544 33.1226 1.87377Z" fill="#2C374C"/>
    <path d="M19.3402 1.87377L31.5579 23.127C32.2242 24.2863 32.2242 25.7144 31.5579 26.8736L19.3402 48.1269C18.6739 49.2861 17.4424 50.0001 16.1096 50.0001H23.2694C24.6022 50.0001 25.8337 49.2861 26.5 48.1269L38.7177 26.8736C39.384 25.7144 39.384 24.2863 38.7177 23.127L26.5 1.87377C25.8335 0.714544 24.602 0.000488281 23.2693 0.000488281H16.1096C17.4422 0.000488281 18.6737 0.714544 19.3402 1.87377Z" fill="#39435A"/>
    <path d="M19.8772 48.1264L7.65955 26.8731C6.99325 25.7139 6.99325 24.2858 7.65955 23.1265L19.8772 1.87328C20.5435 0.714055 21.775 0 23.1078 0H15.948C14.6152 0 13.3837 0.714055 12.7174 1.87328L0.499725 23.1265C-0.166575 24.2858 -0.166575 25.7139 0.499725 26.8731L12.7174 48.1264C13.3837 49.2856 14.6152 49.9996 15.948 49.9996H23.1078C21.775 49.9996 20.5435 49.2856 19.8772 48.1264Z" fill="#435F94"/>
    <path d="M26.9361 48.1265L14.7184 26.8732C14.0521 25.714 14.0521 24.2859 14.7184 23.1267L26.9361 1.87341C27.6024 0.714544 28.8339 0.000488281 30.1666 0.000488281H23.0068C21.674 0.000488281 20.4426 0.714544 19.7763 1.87377L7.55856 23.127C6.89226 24.2863 6.89226 25.7144 7.55856 26.8736L19.7763 48.1269C20.4426 49.2861 21.674 50.0001 23.0068 50.0001H30.1666C28.8339 49.9998 27.6024 49.2857 26.9361 48.1265Z" fill="#377DFF"/>
    <path d="M34.1311 48.1265L21.9135 26.8732C21.2472 25.714 21.2472 24.2859 21.9135 23.1267L34.1311 1.87341C34.7974 0.714544 36.0289 0.000488281 37.3617 0.000488281H30.2019C28.8691 0.000488281 27.6376 0.714544 26.9713 1.87377L14.7536 23.127C14.0873 24.2863 14.0873 25.7144 14.7536 26.8736L26.9713 48.1269C27.6376 49.2861 28.8691 50.0001 30.2019 50.0001H37.3617C36.0289 49.9998 34.7974 49.2857 34.1311 48.1265Z" fill="#37DBFF"/>
  </symbol>

  <symbol id="email-ic" viewBox="0 0 22 18">
    <path fill-rule="evenodd" clip-rule="evenodd" d="M22 3.04314V15.0254C22 16.6777 20.6523 18.0254 19 18.0254H3C1.34772 18.0254 0 16.6777 0 15.0254V3.02539C0 1.37311 1.34772 0.0253906 3 0.0253906H19C20.6443 0.0253906 21.987 1.36017 21.9999 3.00157C22.0002 3.01543 22.0003 3.02929 22 3.04314ZM2.10657 2.57936C2.27194 2.25232 2.61203 2.02539 3 2.02539H19C19.388 2.02539 19.7281 2.25236 19.8935 2.57945L11.0001 8.80482L2.10657 2.57936ZM2 4.94607V15.0254C2 15.5731 2.45228 16.0254 3 16.0254H19C19.5477 16.0254 20 15.5731 20 15.0254V4.94619L11.5735 10.8447C11.2292 11.0857 10.7709 11.0857 10.4266 10.8447L2 4.94607Z" fill="#383638"/>
  </symbol>

  <symbol id="twitter-ic" viewBox="0 0 24 20">
    <path fill-rule="evenodd" clip-rule="evenodd" d="M14.5256 0.375629C15.5744 -0.0246778 16.7208 -0.0932209 17.8099 0.179269C18.6759 0.395959 19.4724 0.819994 20.1327 1.41054C20.9449 1.11202 21.7152 0.708013 22.4237 0.208274C22.7643 -0.0319933 23.2183 -0.0357715 23.5628 0.198792C23.9074 0.433356 24.0703 0.857056 23.9717 1.26205C23.6292 2.66858 22.9426 3.965 21.977 5.03641C21.9918 5.19781 21.9996 5.35987 22.0001 5.52213L22.0001 5.52544C22.0001 11.6254 19.0632 16.1005 14.845 18.3457C10.651 20.5779 5.29097 20.5532 0.51446 17.8996C0.109649 17.6747 -0.0877967 17.2013 0.0372519 16.7554C0.162301 16.3095 0.577127 16.0078 1.03985 16.0262C2.72666 16.0933 4.39647 15.7579 5.91484 15.0584C4.41169 14.1309 3.32952 13.0297 2.57716 11.8417C1.57353 10.2571 1.19466 8.57834 1.12613 7.07084C1.05781 5.56772 1.29658 4.21433 1.54758 3.2438C1.67368 2.75621 1.80452 2.35894 1.90538 2.07997C1.95587 1.94032 1.99901 1.82985 2.03054 1.75202C2.04631 1.71309 2.0592 1.68228 2.06866 1.66003L2.08023 1.6331L2.08398 1.62454L2.08531 1.6215L2.08585 1.6203L2.06866 1.66003L2.08629 1.6193C2.2326 1.29009 2.54468 1.06503 2.90324 1.03014C3.2618 0.995244 3.61142 1.15591 3.81846 1.45073C4.734 2.75441 5.95775 3.81143 7.38071 4.52765C8.51256 5.09735 9.7425 5.43736 10.9998 5.53185C10.9924 4.42219 11.3221 3.3361 11.9457 2.4175C12.5762 1.48869 13.4768 0.775935 14.5256 0.375629ZM3.40475 4.06904C3.22106 4.87041 3.07437 5.88667 3.12407 6.98003C3.18055 8.22253 3.48918 9.54382 4.2668 10.7716C5.04039 11.9931 6.31614 13.1827 8.40624 14.1116C8.73804 14.2591 8.96384 14.5748 8.99614 14.9365C9.02844 15.2981 8.86216 15.6489 8.56173 15.8528C7.4508 16.6069 6.2343 17.1743 4.9602 17.5411C8.13037 18.3488 11.3071 17.9631 13.9053 16.5802C17.4366 14.7006 19.9996 10.9263 20.0001 5.5271C19.9993 5.31101 19.9785 5.09545 19.9379 4.88319C19.8752 4.55533 19.9803 4.21781 20.2179 3.98343C20.4407 3.76374 20.647 3.5296 20.8358 3.28294C20.6093 3.36649 20.3801 3.44322 20.1484 3.51297C19.7718 3.62638 19.3637 3.50847 19.1055 3.21167C18.6377 2.67376 18.016 2.2925 17.3244 2.11946C16.6328 1.94642 15.9048 1.98994 15.2388 2.24415C14.5727 2.49836 14.0009 2.95099 13.6005 3.54081C13.2001 4.13064 12.9905 4.8292 13 5.54203L13.0002 5.55544L13.0001 6.55544C13.0001 7.09762 12.568 7.54105 12.026 7.5551C10.1038 7.60494 8.19909 7.17863 6.48152 6.31412C5.33595 5.73751 4.29735 4.97792 3.40475 4.06904Z" fill="#383638"/>
  </symbol>

  <symbol id="linkedin-ic" viewBox="0 0 22 22">
    <path fill-rule="evenodd" clip-rule="evenodd" d="M3 0.0253906C1.34315 0.0253906 0 1.36854 0 3.02539C0 4.68225 1.34315 6.02539 3 6.02539C4.65685 6.02539 6 4.68225 6 3.02539C6 1.36854 4.65685 0.0253906 3 0.0253906ZM2 3.02539C2 2.47311 2.44772 2.02539 3 2.02539C3.55228 2.02539 4 2.47311 4 3.02539C4 3.57768 3.55228 4.02539 3 4.02539C2.44772 4.02539 2 3.57768 2 3.02539Z" fill="#383638"/>
    <path fill-rule="evenodd" clip-rule="evenodd" d="M15 6.02539C13.1435 6.02539 11.363 6.76289 10.0503 8.07564C8.7375 9.3884 8 11.1689 8 13.0254V20.0254C8 20.5777 8.44771 21.0254 9 21.0254H13C13.5523 21.0254 14 20.5777 14 20.0254V13.0254C14 12.7602 14.1054 12.5058 14.2929 12.3183C14.4804 12.1307 14.7348 12.0254 15 12.0254C15.2652 12.0254 15.5196 12.1307 15.7071 12.3183C15.8946 12.5058 16 12.7602 16 13.0254V20.0254C16 20.5777 16.4477 21.0254 17 21.0254H21C21.5523 21.0254 22 20.5777 22 20.0254V13.0254C22 11.1689 21.2625 9.3884 19.9497 8.07564C18.637 6.76289 16.8565 6.02539 15 6.02539ZM15 8.02539C13.6739 8.02539 12.4021 8.55218 11.4645 9.48986C10.5268 10.4275 10 11.6993 10 13.0254V19.0254H12V13.0254C12 12.2297 12.3161 11.4667 12.8787 10.9041C13.4413 10.3415 14.2043 10.0254 15 10.0254C15.7957 10.0254 16.5587 10.3415 17.1213 10.9041C17.6839 11.4667 18 12.2297 18 13.0254V19.0254H20V13.0254C20 11.6993 19.4732 10.4275 18.5355 9.48986C17.5979 8.55218 16.3261 8.02539 15 8.02539Z" fill="#383638"/>
    <path fill-rule="evenodd" clip-rule="evenodd" d="M0 8.02539C0 7.47311 0.447715 7.02539 1 7.02539H5C5.55228 7.02539 6 7.47311 6 8.02539V20.0254C6 20.5777 5.55228 21.0254 5 21.0254H1C0.447715 21.0254 0 20.5777 0 20.0254V8.02539ZM2 9.02539V19.0254H4V9.02539H2Z" fill="#383638"/>
  </symbol>

  <symbol id="pinterest-ic" viewBox="0 0 20 25">
    <path fill-rule="evenodd" clip-rule="evenodd" d="M6.37691 16.248L7.69491 10.958C7.80491 10.52 8.25691 10.259 8.70091 10.367C9.13791 10.473 9.41191 10.905 9.30491 11.336L8.13191 16.043L9.26991 16.167C9.50191 16.193 9.73591 16.206 9.97391 16.206C13.4939 16.206 16.3439 13.38 16.3439 9.907C16.3439 6.434 13.4939 3.608 9.97391 3.608C6.71491 3.608 4.02891 6.031 3.64991 9.147C3.59591 9.593 3.17991 9.904 2.72791 9.851C2.27891 9.798 1.95191 9.401 2.00591 8.959C2.48291 5.038 5.87391 2 9.97391 2C14.3999 2 17.9999 5.539 17.9999 9.907C17.9999 14.274 14.3999 17.813 9.97391 17.813C9.52791 17.813 9.08991 17.778 8.66291 17.708L7.75391 17.559L6.55191 22.385C6.44291 22.822 5.98991 23.083 5.54591 22.976C5.10891 22.87 4.83491 22.438 4.94191 22.007L6.3729 16.263L6.37691 16.248ZM4.43691 15.765L4.43391 15.775L4.43091 15.784C4.43191 15.784 3.00191 21.523 3.00191 21.523C2.62691 23.026 3.55291 24.55 5.07491 24.919C6.59091 25.287 8.11991 24.364 8.49191 22.868L9.25991 19.789C9.49591 19.805 9.73391 19.813 9.97391 19.813C15.5109 19.813 19.9999 15.371 19.9999 9.907C19.9999 4.443 15.5109 0 9.97391 0C4.84591 0 0.616905 3.814 0.0209055 8.717C-0.166095 10.252 0.936906 11.653 2.49291 11.837C4.04491 12.021 5.44991 10.92 5.63591 9.389C5.89491 7.256 7.74391 5.608 9.97391 5.608C12.3819 5.608 14.3439 7.53 14.3439 9.907C14.3439 12.051 12.7459 13.826 10.6639 14.152L11.2459 11.82C11.6199 10.317 10.6949 8.793 9.17191 8.424C7.65691 8.056 6.1279 8.978 5.7549 10.474L4.43691 15.765Z" fill="#383638"/>
  </symbol>

  <symbol id="vk-ic" viewBox="0 0 24 16">
    <path fill-rule="evenodd" clip-rule="evenodd" d="M23.3791 1.28C23.4671 0.978 23.4081 0.652 23.2191 0.4C23.0301 0.148 22.7341 0 22.4191 0H18.8691C18.4561 0 18.0861 0.254 17.9371 0.639C17.7241 1.19 17.2841 2.175 16.5561 3.137C16.0131 3.854 15.2941 4.577 14.3471 5.021C14.3481 5.02 14.3481 1 14.3481 1C14.3481 0.448 13.9001 0 13.3481 0H9.97307C9.42107 0 8.97307 0.448 8.97307 1V9.783C7.88207 9.039 7.16007 7.86 6.64307 6.644C5.76707 4.58 5.46207 2.327 5.37607 0.939C5.34407 0.411 4.90707 0 4.37807 0H1.00007C0.725073 0 0.463073 0.113 0.274073 0.312C0.0850733 0.512 -0.0129265 0.78 0.00107353 1.054C0.100074 2.873 0.506074 5.961 1.70407 8.784C3.35607 12.674 6.41107 16 11.6601 16H13.3481C13.9001 16 14.3481 15.552 14.3481 15V11.405C15.8411 11.96 17.5781 13.082 18.4951 15.372C18.6471 15.751 19.0151 16 19.4241 16H23.0001C23.3211 16 23.6221 15.846 23.8101 15.587C23.9981 15.327 24.0501 14.993 23.9501 14.688L23.7721 14.146C22.8271 11.264 21.1771 9.333 19.3941 8.039C19.9321 7.531 20.4071 6.986 20.8251 6.435C22.5581 4.146 23.2381 1.763 23.2381 1.763C23.2371 1.767 23.3791 1.28 23.3791 1.28ZM21.0341 2C20.7251 2.776 20.1481 4.016 19.2311 5.227C18.6601 5.981 17.9631 6.721 17.1211 7.337C16.8471 7.538 16.6941 7.863 16.7131 8.202C16.7331 8.541 16.9231 8.846 17.2181 9.014C18.9031 9.97 20.5741 11.514 21.5891 14H20.0741C18.4791 10.72 15.5121 9.523 13.5611 9.096C13.2661 9.032 12.9561 9.104 12.7211 9.294C12.4851 9.484 12.3481 9.77 12.3481 10.073V14H11.6601C7.35307 14 4.90107 11.195 3.54507 8.002C2.65707 5.912 2.25107 3.661 2.08207 2H3.46007C3.62407 3.521 4.00307 5.544 4.80207 7.425C4.80207 7.425 4.80207 7.425 4.80207 7.426C5.72807 9.605 7.24707 11.601 9.69707 12.305C9.99907 12.391 10.3241 12.331 10.5751 12.142C10.8261 11.953 10.9731 11.657 10.9731 11.343V2H12.3481V6.373C12.3481 6.668 12.4781 6.948 12.7031 7.138C12.9281 7.328 13.2261 7.409 13.5171 7.359C15.6271 6.997 17.1321 5.689 18.1501 4.344C18.7851 3.507 19.2361 2.655 19.5331 2H21.0341Z" fill="#383638"/>
  </symbol>

  <symbol id="play-ic" viewBox="0 0 24 24">
    <path fill-rule="evenodd" clip-rule="evenodd" d="M10.416 7.37596C10.1859 7.22254 9.88997 7.20823 9.64611 7.33875C9.40224 7.46926 9.25 7.7234 9.25 8V16C9.25 16.2766 9.40224 16.5307 9.64611 16.6613C9.88997 16.7918 10.1859 16.7775 10.416 16.624L16.416 12.624C16.6247 12.4849 16.75 12.2508 16.75 12C16.75 11.7492 16.6247 11.5151 16.416 11.376L10.416 7.37596ZM14.6479 12L10.75 14.5986V9.40139L14.6479 12Z" fill="currenColor"/>
    <path fill-rule="evenodd" clip-rule="evenodd" d="M12 1.25C6.06294 1.25 1.25 6.06294 1.25 12C1.25 17.9371 6.06294 22.75 12 22.75C17.9371 22.75 22.75 17.9371 22.75 12C22.75 6.06294 17.9371 1.25 12 1.25ZM2.75 12C2.75 6.89137 6.89137 2.75 12 2.75C17.1086 2.75 21.25 6.89137 21.25 12C21.25 17.1086 17.1086 21.25 12 21.25C6.89137 21.25 2.75 17.1086 2.75 12Z" fill="currenColor"/>
  </symbol>
</svg>
