<svg display="none" xmlns="http://www.w3.org/2000/svg" xmlns:xlink="http://www.w3.org/1999/xlink">
  <symbol id="logo-ic" viewBox="0 0 53 50">
    <path d="M33.1226 1.87377L45.3403 23.127C46.0066 24.2863 46.0066 25.7144 45.3403 26.8736L33.1226 48.1269C32.4563 49.2861 31.2249 50.0001 29.8921 50.0001H37.0519C38.3847 50.0001 39.6162 49.2861 40.2825 48.1269L52.5002 26.8736C53.1665 25.7144 53.1665 24.2863 52.5002 23.127L40.2825 1.87377C39.6162 0.714544 38.3845 0.000488281 37.0519 0.000488281H29.8921C31.2249 0.000488281 32.4563 0.714544 33.1226 1.87377Z" fill="#39435A"/>
    <path d="M33.1226 1.87377L33.667 2.82078C34.5923 2.83436 35.5534 2.9107 36.5343 3.05552C38.4862 3.34389 40.2855 3.86951 41.8228 4.55371L40.2821 1.87377C39.6162 0.714544 38.3847 0.000488281 37.0519 0.000488281H29.8921C31.2249 0.000488281 32.4563 0.714544 33.1226 1.87377Z" fill="#2C374C"/>
    <path d="M19.3402 1.87377L31.5579 23.127C32.2242 24.2863 32.2242 25.7144 31.5579 26.8736L19.3402 48.1269C18.6739 49.2861 17.4424 50.0001 16.1096 50.0001H23.2694C24.6022 50.0001 25.8337 49.2861 26.5 48.1269L38.7177 26.8736C39.384 25.7144 39.384 24.2863 38.7177 23.127L26.5 1.87377C25.8335 0.714544 24.602 0.000488281 23.2693 0.000488281H16.1096C17.4422 0.000488281 18.6737 0.714544 19.3402 1.87377Z" fill="#39435A"/>
    <path d="M19.8772 48.1264L7.65955 26.8731C6.99325 25.7139 6.99325 24.2858 7.65955 23.1265L19.8772 1.87328C20.5435 0.714055 21.775 0 23.1078 0H15.948C14.6152 0 13.3837 0.714055 12.7174 1.87328L0.499725 23.1265C-0.166575 24.2858 -0.166575 25.7139 0.499725 26.8731L12.7174 48.1264C13.3837 49.2856 14.6152 49.9996 15.948 49.9996H23.1078C21.775 49.9996 20.5435 49.2856 19.8772 48.1264Z" fill="#435F94"/>
    <path d="M26.9361 48.1265L14.7184 26.8732C14.0521 25.714 14.0521 24.2859 14.7184 23.1267L26.9361 1.87341C27.6024 0.714544 28.8339 0.000488281 30.1666 0.000488281H23.0068C21.674 0.000488281 20.4426 0.714544 19.7763 1.87377L7.55856 23.127C6.89226 24.2863 6.89226 25.7144 7.55856 26.8736L19.7763 48.1269C20.4426 49.2861 21.674 50.0001 23.0068 50.0001H30.1666C28.8339 49.9998 27.6024 49.2857 26.9361 48.1265Z" fill="#377DFF"/>
    <path d="M34.1311 48.1265L21.9135 26.8732C21.2472 25.714 21.2472 24.2859 21.9135 23.1267L34.1311 1.87341C34.7974 0.714544 36.0289 0.000488281 37.3617 0.000488281H30.2019C28.8691 0.000488281 27.6376 0.714544 26.9713 1.87377L14.7536 23.127C14.0873 24.2863 14.0873 25.7144 14.7536 26.8736L26.9713 48.1269C27.6376 49.2861 28.8691 50.0001 30.2019 50.0001H37.3617C36.0289 49.9998 34.7974 49.2857 34.1311 48.1265Z" fill="#37DBFF"/>
  </symbol>
</svg>
