<svg width="24" height="24" viewBox="0 0 24 24" fill="none" xmlns="http://www.w3.org/2000/svg">
<path d="M11.1032 3.81665C11.47 3.07349 12.5298 3.07349 12.8966 3.81665L14.8574 7.78911C15.003 8.08396 15.2842 8.28842 15.6095 8.33598L19.9961 8.97714C20.816 9.09698 21.1428 10.1048 20.5492 10.683L17.3767 13.773C17.1408 14.0028 17.0331 14.3339 17.0888 14.6584L17.8373 19.0227C17.9774 19.8396 17.1199 20.4626 16.3863 20.0768L12.4653 18.0148C12.174 17.8616 11.8258 17.8616 11.5344 18.0148L7.61353 20.0768C6.8799 20.4626 6.02235 19.8396 6.16247 19.0227L6.91098 14.6584C6.96664 14.3339 6.85898 14.0028 6.6231 13.773L3.45057 10.683C2.85698 10.1048 3.18376 9.09698 4.00368 8.97714L8.39026 8.33598C8.71562 8.28842 8.9968 8.08396 9.14234 7.78911L11.1032 3.81665Z" fill="#F8BD38"/>
</svg>
