<svg width="100" height="100" viewBox="0 0 100 100" fill="none" xmlns="http://www.w3.org/2000/svg">
<g clip-path="url(#clip0_1_104)">
<circle cx="50" cy="50" r="50" fill="#FFA800"/>
<path fill-rule="evenodd" clip-rule="evenodd" d="M42.3107 31.4393C41.7249 30.8536 40.7751 30.8536 40.1893 31.4393C39.6036 32.0251 39.6036 32.9749 40.1893 33.5607L46.3787 39.75H36C33.2386 39.75 31 41.9886 31 44.75V64C31 66.7614 33.2386 69 36 69H64C66.7614 69 69 66.7614 69 64V44.75C69 41.9886 66.7614 39.75 64 39.75H53.6213L59.8107 33.5607C60.3964 32.9749 60.3964 32.0251 59.8107 31.4393C59.2249 30.8536 58.2751 30.8536 57.6893 31.4393L50 39.1287L42.3107 31.4393ZM34 44.75C34 43.6454 34.8954 42.75 36 42.75H64C65.1046 42.75 66 43.6454 66 44.75V64C66 65.1046 65.1046 66 64 66H36C34.8954 66 34 65.1046 34 64V44.75Z" fill="white"/>
</g>
<defs>
<clipPath id="clip0_1_104">
<rect width="100" height="100" fill="white"/>
</clipPath>
</defs>
</svg>
